<svg width="24" height="24" viewBox="0 0 24 24" fill="none" xmlns="http://www.w3.org/2000/svg">
  <path d="M81 2.838C81 2.35053 81.1936 1.88303 81.5383 1.53834C81.883 1.19365 82.3505 1 82.838 1H101.16C101.402 0.999605 101.641 1.04686 101.864 1.13907C102.087 1.23127 102.29 1.36661 102.461 1.53734C102.632 1.70806 102.768 1.91082 102.86 2.13401C102.953 2.3572 103 2.59643 103 2.838V21.16C103 21.4016 102.953 21.6409 102.861 21.8642C102.768 22.0875 102.633 22.2904 102.462 22.4613C102.291 22.6322 102.088 22.7678 101.865 22.8602C101.642 22.9526 101.403 23.0001 101.161 23H82.838C82.5965 23 82.3575 22.9524 82.1344 22.86C81.9113 22.7676 81.7087 22.6321 81.538 22.4613C81.3673 22.2905 81.2319 22.0878 81.1396 21.8647C81.0473 21.6416 80.9999 21.4025 81 21.161V2.838ZM89.708 9.388H92.687V10.884C93.117 10.024 94.217 9.25 95.87 9.25C99.039 9.25 99.79 10.963 99.79 14.106V19.928H96.583V14.822C96.583 13.032 96.153 12.022 95.061 12.022C93.546 12.022 92.916 13.111 92.916 14.822V19.928H89.708V9.388ZM84.208 19.791H87.416V9.25H84.208V19.79V19.791ZM87.875 5.812C87.881 6.08667 87.8322 6.35979 87.7312 6.61531C87.6303 6.87084 87.4794 7.10364 87.2872 7.30003C87.0951 7.49643 86.8657 7.65247 86.6125 7.75901C86.3592 7.86554 86.0872 7.92042 85.8125 7.92042C85.5378 7.92042 85.2658 7.86554 85.0125 7.75901C84.7593 7.65247 84.5299 7.49643 84.3378 7.30003C84.1456 7.10364 83.9947 6.87084 83.8938 6.61531C83.7928 6.35979 83.744 6.08667 83.75 5.812C83.7619 5.27285 83.9844 4.75979 84.3699 4.38269C84.7554 4.00558 85.2732 3.79442 85.8125 3.79442C86.3518 3.79442 86.8696 4.00558 87.2551 4.38269C87.6406 4.75979 87.8631 5.27285 87.875 5.812V5.812Z" fill-rule="evenodd" clip-rule="evenodd" fill="#fff" transform="translate(-81 0)"/>
</svg>
