<svg preserveAspectRatio="none" width="100%" height="100%" overflow="visible" style="display: block;" viewBox="0 0 104 24" fill="none" xmlns="http://www.w3.org/2000/svg">
<g id="Frame 47" opacity="0.8">
<g id="akar-icons:facebook-fill" clip-path="url(#clip0_0_11)">
<path id="Vector" fill-rule="evenodd" clip-rule="evenodd" d="M0 12.067C0 18.033 4.333 22.994 10 24V15.333H7V12H10V9.333C10 6.333 11.933 4.667 14.667 4.667C15.533 4.667 16.467 4.8 17.333 4.933V8H15.8C14.333 8 14 8.733 14 9.667V12H17.2L16.667 15.333H14V24C19.667 22.994 24 18.034 24 12.067C24 5.43 18.6 0 12 0C5.4 0 0 5.43 0 12.067Z" fill="var(--fill-0, white)"/>
</g>
<g id="akar-icons:instagram-fill">
<path id="Vector_2" fill-rule="evenodd" clip-rule="evenodd" d="M47.465 1.066C48.638 1.012 49.012 1 52 1C54.988 1 55.362 1.013 56.534 1.066C57.706 1.119 58.506 1.306 59.206 1.577C59.939 1.854 60.604 2.287 61.154 2.847C61.714 3.396 62.146 4.06 62.422 4.794C62.694 5.494 62.88 6.294 62.934 7.464C62.988 8.639 63 9.013 63 12C63 14.988 62.987 15.362 62.934 16.535C62.881 17.705 62.694 18.505 62.422 19.205C62.146 19.9391 61.7133 20.6042 61.154 21.154C60.604 21.714 59.939 22.146 59.206 22.422C58.506 22.694 57.706 22.88 56.536 22.934C55.362 22.988 54.988 23 52 23C49.012 23 48.638 22.987 47.465 22.934C46.295 22.881 45.495 22.694 44.795 22.422C44.0609 22.146 43.3958 21.7133 42.846 21.154C42.2864 20.6047 41.8533 19.9399 41.577 19.206C41.306 18.506 41.12 17.706 41.066 16.536C41.012 15.361 41 14.987 41 12C41 9.012 41.013 8.638 41.066 7.466C41.119 6.294 41.306 5.494 41.577 4.794C41.8537 4.06008 42.2871 3.39531 42.847 2.846C43.396 2.2865 44.0605 1.85344 44.794 1.577C45.494 1.306 46.294 1.12 47.464 1.066H47.465ZM56.445 3.046C55.285 2.993 54.937 2.982 52 2.982C49.063 2.982 48.715 2.993 47.555 3.046C46.482 3.095 45.9 3.274 45.512 3.425C44.999 3.625 44.632 3.862 44.247 4.247C43.882 4.60205 43.6012 5.03428 43.425 5.512C43.274 5.9 43.095 6.482 43.046 7.555C42.993 8.715 42.982 9.063 42.982 12C42.982 14.937 42.993 15.285 43.046 16.445C43.095 17.518 43.274 18.1 43.425 18.488C43.601 18.965 43.882 19.398 44.247 19.753C44.602 20.118 45.035 20.399 45.512 20.575C45.9 20.726 46.482 20.905 47.555 20.954C48.715 21.007 49.062 21.018 52 21.018C54.938 21.018 55.285 21.007 56.445 20.954C57.518 20.905 58.1 20.726 58.488 20.575C59.001 20.375 59.368 20.138 59.753 19.753C60.118 19.398 60.399 18.965 60.575 18.488C60.726 18.1 60.905 17.518 60.954 16.445C61.007 15.285 61.018 14.937 61.018 12C61.018 9.063 61.007 8.715 60.954 7.555C60.905 6.482 60.726 5.9 60.575 5.512C60.375 4.999 60.138 4.632 59.753 4.247C59.3979 3.88207 58.9657 3.60121 58.488 3.425C58.1 3.274 57.518 3.095 56.445 3.046V3.046ZM50.595 15.391C51.3797 15.7176 52.2534 15.7617 53.0669 15.5157C53.8805 15.2697 54.5834 14.7489 55.0556 14.0422C55.5278 13.3356 55.7401 12.4869 55.656 11.6411C55.572 10.7953 55.197 10.005 54.595 9.405C54.2112 9.02148 53.7472 8.72781 53.2363 8.54515C52.7255 8.36248 52.1804 8.29536 51.6405 8.34862C51.1006 8.40187 50.5792 8.57418 50.1138 8.85313C49.6485 9.13208 49.2507 9.51074 48.9493 9.96185C48.6479 10.413 48.4502 10.9253 48.3705 11.462C48.2908 11.9986 48.3312 12.5463 48.4885 13.0655C48.6459 13.5847 48.9165 14.0626 49.2807 14.4647C49.645 14.8668 50.0938 15.1832 50.595 15.391ZM48.002 8.002C48.527 7.47698 49.1503 7.0605 49.8363 6.77636C50.5223 6.49222 51.2575 6.34597 52 6.34597C52.7425 6.34597 53.4777 6.49222 54.1637 6.77636C54.8497 7.0605 55.473 7.47698 55.998 8.002C56.523 8.52702 56.9395 9.15032 57.2236 9.8363C57.5078 10.5223 57.654 11.2575 57.654 12C57.654 12.7425 57.5078 13.4777 57.2236 14.1637C56.9395 14.8497 56.523 15.473 55.998 15.998C54.9377 17.0583 53.4995 17.654 52 17.654C50.5005 17.654 49.0623 17.0583 48.002 15.998C46.9417 14.9377 46.346 13.4995 46.346 12C46.346 10.5005 46.9417 9.06234 48.002 8.002V8.002ZM58.908 7.188C59.0381 7.06527 59.1423 6.91768 59.2143 6.75397C59.2863 6.59027 59.3248 6.41377 59.3274 6.23493C59.33 6.05609 59.2967 5.87855 59.2295 5.71281C59.1622 5.54707 59.0624 5.39651 58.936 5.27004C58.8095 5.14357 58.6589 5.04376 58.4932 4.97652C58.3275 4.90928 58.1499 4.87598 57.9711 4.87858C57.7922 4.88119 57.6157 4.91965 57.452 4.9917C57.2883 5.06374 57.1407 5.1679 57.018 5.298C56.7793 5.55103 56.6486 5.88712 56.6537 6.23493C56.6588 6.58274 56.7992 6.91488 57.0452 7.16084C57.2911 7.40681 57.6233 7.54723 57.9711 7.5523C58.3189 7.55737 58.655 7.42669 58.908 7.188V7.188Z" fill="var(--fill-0, white)"/>
</g>
<g id="akar-icons:linkedin-box-fill">
<path id="Vector_3" fill-rule="evenodd" clip-rule="evenodd" d="M81 2.838C81 2.35053 81.1936 1.88303 81.5383 1.53834C81.883 1.19365 82.3505 1 82.838 1H101.16C101.402 0.999605 101.641 1.04686 101.864 1.13907C102.087 1.23127 102.29 1.36661 102.461 1.53734C102.632 1.70806 102.768 1.91082 102.86 2.13401C102.953 2.3572 103 2.59643 103 2.838V21.16C103 21.4016 102.953 21.6409 102.861 21.8642C102.768 22.0875 102.633 22.2904 102.462 22.4613C102.291 22.6322 102.088 22.7678 101.865 22.8602C101.642 22.9526 101.403 23.0001 101.161 23H82.838C82.5965 23 82.3575 22.9524 82.1344 22.86C81.9113 22.7676 81.7087 22.6321 81.538 22.4613C81.3673 22.2905 81.2319 22.0878 81.1396 21.8647C81.0473 21.6416 80.9999 21.4025 81 21.161V2.838ZM89.708 9.388H92.687V10.884C93.117 10.024 94.217 9.25 95.87 9.25C99.039 9.25 99.79 10.963 99.79 14.106V19.928H96.583V14.822C96.583 13.032 96.153 12.022 95.061 12.022C93.546 12.022 92.916 13.111 92.916 14.822V19.928H89.708V9.388ZM84.208 19.791H87.416V9.25H84.208V19.79V19.791ZM87.875 5.812C87.881 6.08667 87.8322 6.35979 87.7312 6.61531C87.6303 6.87084 87.4794 7.10364 87.2872 7.30003C87.0951 7.49643 86.8657 7.65247 86.6125 7.75901C86.3592 7.86554 86.0872 7.92042 85.8125 7.92042C85.5378 7.92042 85.2658 7.86554 85.0125 7.75901C84.7593 7.65247 84.5299 7.49643 84.3378 7.30003C84.1456 7.10364 83.9947 6.87084 83.8938 6.61531C83.7928 6.35979 83.744 6.08667 83.75 5.812C83.7619 5.27285 83.9844 4.75979 84.3699 4.38269C84.7554 4.00558 85.2732 3.79442 85.8125 3.79442C86.3518 3.79442 86.8696 4.00558 87.2551 4.38269C87.6406 4.75979 87.8631 5.27285 87.875 5.812V5.812Z" fill="var(--fill-0, white)"/>
</g>
</g>
<defs>
<clipPath id="clip0_0_11">
<rect width="24" height="24" fill="white"/>
</clipPath>
</defs>
</svg>
